<svg width="176" height="70" viewBox="0 0 176 70" fill="none" xmlns="http://www.w3.org/2000/svg">
<path d="M16.4296 31.266H0V19.1181H31.0669V70H16.4296V31.266Z" fill="white"/>
<path d="M44.4091 69.9004V44.4097H59.4446V69.9004H44.4091Z" fill="white"/>
<path d="M46.2029 38.4352H58.1517V40.128C58.1517 41.1729 57.3046 42.0199 56.2598 42.0199H48.0948C47.0499 42.0199 46.2029 41.1728 46.2029 40.128V38.4352Z" fill="#88F0E5"/>
<path d="M50.6304 23.4748L47.6432 36.1206C44.9349 36.2799 43.7266 33.5981 43.461 32.2373L43.1622 28.5531C43.8792 26.6413 40.7394 21.3838 39.0799 18.994C37.1681 14.0552 38.9471 8.63841 40.0756 6.54737C43.6602 0.493321 50.8627 -0.289989 54.0158 0.0751129C59.114 0.314089 63.243 5.3525 64.6702 7.84183C65.5464 9.19602 65.7655 13.3847 65.7655 15.3098C65.5265 18.2572 63.6745 21.5166 62.7783 22.7778C61.4241 24.2913 60.8864 26.8603 60.7868 27.9556C60.7868 27.9556 60.6871 31.0669 60.488 32.0626C60.2888 33.0583 59.1935 34.3772 57.6999 35.2489C56.2063 36.1206 53.7171 36.1206 53.7171 36.1206L57.1026 18.6953H53.7171L55.5094 7.84183L46.4483 23.4748H50.6304Z" fill="#88F0E5"/>
<path d="M111.086 20.6101V34.65C105.829 31.7026 100.531 30.7002 98.54 30.5674C80.9354 30.8861 81.7785 43.9102 84.4006 50.3825C91.4902 61.694 105.477 56.7552 111.584 52.8718V67.1108C110.469 67.7481 104.548 69.235 101.726 69.8989C69.7833 71.3327 66.7098 48.0591 69.1659 36.2431C78.5656 13.1421 101.029 16.1957 111.086 20.6101Z" fill="white"/>
<path d="M112.321 47.972C110.633 47.972 108.812 47.3841 107.826 46.5685L109.191 44.2735C109.912 44.8425 111.467 45.4305 112.492 45.4305C113.193 45.4305 113.402 45.2598 113.402 45.0322C113.402 44.1597 108.205 45.2787 108.205 41.4474C108.205 39.7973 109.647 38.3559 112.302 38.3559C113.838 38.3559 115.204 38.83 116.266 39.5318L115.014 41.7509C114.445 41.2767 113.383 40.8026 112.321 40.8026C111.828 40.8026 111.467 40.9543 111.467 41.2009C111.467 41.9596 116.664 41.0112 116.664 44.8235C116.664 46.6443 115.033 47.972 112.321 47.972ZM127.499 47.7444H124.085V46.7202C123.554 47.3082 122.548 47.972 120.936 47.972C118.812 47.972 117.902 46.7012 117.902 45.127V38.5835H121.316V43.6666C121.316 44.5959 121.809 44.9563 122.643 44.9563C123.402 44.9563 123.8 44.558 124.085 44.2356V38.5835H127.499V47.7444ZM144.52 47.7444H141.106V42.3958C141.106 41.8458 140.822 41.3716 140.063 41.3716C139.305 41.3716 138.887 41.8268 138.66 42.0923V47.7444H135.246V42.3958C135.246 41.8458 134.98 41.3716 134.202 41.3716C133.463 41.3716 133.045 41.8268 132.818 42.0923V47.7444H129.404V38.5835H132.818V39.6266C133.216 39.1145 134.373 38.3559 135.853 38.3559C137.142 38.3559 138.072 38.83 138.489 39.968C139.02 39.1714 140.215 38.3559 141.694 38.3559C143.382 38.3559 144.52 39.2094 144.52 41.106V47.7444ZM161.542 47.7444H158.128V42.3958C158.128 41.8458 157.844 41.3716 157.085 41.3716C156.326 41.3716 155.909 41.8268 155.682 42.0923V47.7444H152.268V42.3958C152.268 41.8458 152.002 41.3716 151.224 41.3716C150.485 41.3716 150.067 41.8268 149.84 42.0923V47.7444H146.426V38.5835H149.84V39.6266C150.238 39.1145 151.395 38.3559 152.875 38.3559C154.164 38.3559 155.094 38.83 155.511 39.968C156.042 39.1714 157.237 38.3559 158.716 38.3559C160.404 38.3559 161.542 39.2094 161.542 41.106V47.7444ZM165.155 37.9196C164.093 37.9196 163.239 37.0661 163.239 36.004C163.239 34.9418 164.093 34.0883 165.155 34.0883C166.217 34.0883 167.07 34.9418 167.07 36.004C167.07 37.0661 166.217 37.9196 165.155 37.9196ZM166.862 47.7444H163.448V38.5835H166.862V47.7444ZM172.614 47.972C170.584 47.972 169.465 47.0047 169.465 45.0891V41.5423H167.948V38.5835H169.465V36.0798H172.879V38.5835H174.738V41.5423H172.879V44.1028C172.879 44.577 173.183 44.9563 173.638 44.9563C173.942 44.9563 174.245 44.8615 174.321 44.7856L174.928 47.3651C174.567 47.6875 173.771 47.972 172.614 47.972Z" fill="#88F0E5"/>
</svg>
