<svg width="763" height="118" viewBox="0 0 763 118" fill="none" xmlns="http://www.w3.org/2000/svg">
<path d="M22.0918 42.917H0V26.5825H41.7735V95H22.0918V42.917Z" fill="white"/>
<path d="M62.126 52.557H78.1927V55.4851C78.1927 56.53 77.3457 57.377 76.3008 57.377H64.0179C62.973 57.377 62.126 56.53 62.126 55.4851V52.557Z" fill="#88F0E5"/>
<path d="M59.7139 94.8661V60.5904H79.9312V94.8661H59.7139Z" fill="white"/>
<path d="M68.0793 32.4408L64.0626 49.4447C60.421 49.6589 58.7963 46.0528 58.4391 44.223L58.0374 39.2691C59.0014 36.6984 54.7796 29.6291 52.5481 26.4157C49.9775 19.7748 52.3696 12.4912 53.887 9.67956C58.7071 1.53908 68.3917 0.485819 72.6316 0.976747C79.4867 1.29808 85.0386 8.07288 86.9577 11.4201C88.1359 13.241 88.4305 18.8733 88.4305 21.4618C88.1092 25.4249 85.6188 29.8076 84.4138 31.5035C82.5929 33.5386 81.8699 36.993 81.736 38.4658C81.736 38.4658 81.602 42.6492 81.3342 43.9881C81.0664 45.327 79.5936 47.1005 77.5853 48.2726C75.577 49.4447 72.2299 49.4447 72.2299 49.4447L76.7821 26.0141H72.2299L74.6399 11.4201L62.456 32.4408H68.0793Z" fill="#88F0E5"/>
<path d="M149.37 28.5888V47.4672C142.301 43.5041 135.178 42.1562 132.5 41.9777C108.828 42.4061 109.962 59.9189 113.488 68.6217C123.021 83.8315 141.828 77.1906 150.04 71.9689V91.1151C148.54 91.972 140.578 93.9714 136.785 94.864C93.8329 96.792 89.7001 65.4976 93.0027 49.6094C105.642 18.5471 135.847 22.653 149.37 28.5888Z" fill="white"/>
<path d="M205.048 96.152C191.416 96.152 182.104 92.12 175.288 85.976L185.368 71.576C190.168 76.184 197.368 79.832 206.008 79.832C209.656 79.832 213.112 78.872 213.112 76.376C213.112 70.232 177.4 76.472 177.4 51.224C177.4 40.376 186.424 30.008 203.992 30.008C214.456 30.008 223.864 32.984 231.16 38.936L220.792 52.664C215.224 48.44 208.024 46.328 201.976 46.328C198.136 46.328 197.08 47.576 197.08 49.208C197.08 55.256 232.696 50.072 232.696 73.88C232.696 87.992 222.232 96.152 205.048 96.152ZM270.739 96.152C249.139 96.152 239.059 84.536 239.059 68.696V30.968H258.739V68.024C258.739 74.168 262.771 79.064 270.739 79.064C278.611 79.064 282.643 74.168 282.643 68.024V30.968H302.323V68.6C302.323 84.536 292.339 96.152 270.739 96.152ZM388.685 95H369.293V56.504L354.989 95H346.349L332.045 56.504V95H312.653V30.968H339.437L350.669 61.688L361.901 30.968H388.685V95ZM475.122 95H455.73V56.504L441.426 95H432.786L418.482 56.504V95H399.09V30.968H425.874L437.106 61.688L448.338 30.968H475.122V95ZM504.92 95H485.528V30.968H504.92V95ZM548.367 95H528.975V47.864H511.791V30.968H565.455V47.864H548.367V95ZM594.505 51.032C594.505 42.584 599.017 35.192 606.505 29.912L613.513 35.576C610.441 36.92 606.025 41.144 604.777 44.792C605.257 44.6 606.217 44.408 607.273 44.408C611.881 44.408 615.625 47.96 615.625 53.336C615.625 58.904 611.017 63.416 605.641 63.416C599.785 63.416 594.505 58.904 594.505 51.032ZM699.35 95H647.03V79.928C676.31 59.288 679.094 56.888 679.094 52.088C679.094 49.016 675.83 47.096 671.702 47.096C664.886 47.096 659.702 49.592 654.806 53.72L644.246 40.856C651.638 32.984 662.39 30.008 671.318 30.008C687.926 30.008 698.774 39.224 698.774 52.088C698.774 60.824 693.782 68.024 678.518 78.104H699.35V95ZM753.905 95H734.513V84.728H703.697V69.848L727.025 30.968H753.905V67.832H761.297V84.728H753.905V95ZM734.513 67.832V47.672L722.417 67.832H734.513Z" fill="white"/>
</svg>
